<svg width="26" height="26" viewBox="0 0 26 26" fill="none" xmlns="http://www.w3.org/2000/svg">
<path d="M24.6667 13H21.7734C21.2635 12.9989 20.7673 13.1649 20.3607 13.4725C19.9541 13.7801 19.6594 14.2124 19.5217 14.7033L16.78 24.4567C16.7624 24.5173 16.7255 24.5705 16.675 24.6083C16.6246 24.6462 16.5631 24.6667 16.5 24.6667C16.4369 24.6667 16.3755 24.6462 16.325 24.6083C16.2746 24.5705 16.2377 24.5173 16.22 24.4567L9.78004 1.54334C9.76237 1.48276 9.72553 1.42954 9.67504 1.39168C9.62455 1.35381 9.56315 1.33334 9.50004 1.33334C9.43693 1.33334 9.37553 1.35381 9.32504 1.39168C9.27455 1.42954 9.23771 1.48276 9.22004 1.54334L6.47837 11.2967C6.34125 11.7857 6.04832 12.2166 5.64405 12.524C5.23978 12.8314 4.74625 12.9986 4.23837 13H1.33337" stroke="white" stroke-width="2" stroke-linecap="round" stroke-linejoin="round"/>
</svg>
